<svg xmlns="http://www.w3.org/2000/svg" xmlns:xlink="http://www.w3.org/1999/xlink" width="2000" zoomAndPan="magnify" viewBox="0 0 1500 1499.999933" height="2000" preserveAspectRatio="xMidYMid meet" version="1.0"><defs><clipPath id="d7d63cecb6"><path d="M 619.902344 266.449219 L 822.320312 266.449219 L 822.320312 671.28125 L 619.902344 671.28125 Z M 619.902344 266.449219 " clip-rule="nonzero"/></clipPath><clipPath id="1f5aeb23b4"><path d="M 822.320312 468.867188 L 619.902344 266.449219 L 619.902344 671.28125 Z M 822.320312 468.867188 " clip-rule="nonzero"/></clipPath><clipPath id="6790b87ff4"><path d="M 0.902344 0.449219 L 203.320312 0.449219 L 203.320312 405.28125 L 0.902344 405.28125 Z M 0.902344 0.449219 " clip-rule="nonzero"/></clipPath><clipPath id="0648fe963b"><path d="M 203.320312 202.867188 L 0.902344 0.449219 L 0.902344 405.28125 Z M 203.320312 202.867188 " clip-rule="nonzero"/></clipPath><clipPath id="0c41d946a6"><rect x="0" width="204" y="0" height="406"/></clipPath><clipPath id="9a3036987c"><path d="M 257.320312 359.171875 L 650.996094 359.171875 L 650.996094 1147 L 257.320312 1147 Z M 257.320312 359.171875 " clip-rule="nonzero"/></clipPath><clipPath id="6e87437ddf"><path d="M 650.996094 359.171875 C 436.566406 359.171875 257.320312 538.417969 257.320312 752.847656 C 257.320312 967.277344 436.566406 1146.523438 650.996094 1146.523438 L 650.996094 927.929688 C 555.628906 927.929688 475.914062 848.210938 475.914062 752.847656 C 475.914062 657.484375 555.628906 577.765625 650.996094 577.765625 Z M 650.996094 359.171875 " clip-rule="nonzero"/></clipPath><clipPath id="c8cbfa240d"><path d="M 0.320312 0.171875 L 393.996094 0.171875 L 393.996094 787.71875 L 0.320312 787.71875 Z M 0.320312 0.171875 " clip-rule="nonzero"/></clipPath><clipPath id="80ee92c8c3"><path d="M 393.996094 0.171875 C 179.566406 0.171875 0.320312 179.417969 0.320312 393.847656 C 0.320312 608.277344 179.566406 787.523438 393.996094 787.523438 L 393.996094 568.929688 C 298.628906 568.929688 218.914062 489.210938 218.914062 393.847656 C 218.914062 298.484375 298.628906 218.765625 393.996094 218.765625 Z M 393.996094 0.171875 " clip-rule="nonzero"/></clipPath><clipPath id="c8907cbd75"><rect x="0" width="394" y="0" height="788"/></clipPath><clipPath id="9870aa9012"><path d="M 677.671875 828.726562 L 880.085938 828.726562 L 880.085938 1233.5625 L 677.671875 1233.5625 Z M 677.671875 828.726562 " clip-rule="nonzero"/></clipPath><clipPath id="4505fbf5fb"><path d="M 677.671875 1031.144531 L 880.085938 1233.5625 L 880.085938 828.726562 Z M 677.671875 1031.144531 " clip-rule="nonzero"/></clipPath><clipPath id="149ec4ad3f"><path d="M 0.671875 0.726562 L 203.085938 0.726562 L 203.085938 405.5625 L 0.671875 405.5625 Z M 0.671875 0.726562 " clip-rule="nonzero"/></clipPath><clipPath id="27bd5587b2"><path d="M 0.671875 203.144531 L 203.085938 405.5625 L 203.085938 0.726562 Z M 0.671875 203.144531 " clip-rule="nonzero"/></clipPath><clipPath id="614bda4451"><rect x="0" width="204" y="0" height="406"/></clipPath><clipPath id="cdde19f452"><path d="M 849 353 L 1242.671875 353 L 1242.671875 1140.828125 L 849 1140.828125 Z M 849 353 " clip-rule="nonzero"/></clipPath><clipPath id="4633dded7a"><path d="M 849 1140.828125 C 1063.425781 1140.828125 1242.671875 961.582031 1242.671875 747.152344 C 1242.671875 532.726562 1063.425781 353.480469 849 353.480469 L 849 572.070312 C 944.363281 572.070312 1024.082031 651.789062 1024.082031 747.152344 C 1024.082031 842.519531 944.363281 922.234375 849 922.234375 Z M 849 1140.828125 " clip-rule="nonzero"/></clipPath><clipPath id="a04e42e711"><path d="M 0 0.28125 L 393.671875 0.28125 L 393.671875 787.828125 L 0 787.828125 Z M 0 0.28125 " clip-rule="nonzero"/></clipPath><clipPath id="24669dcdab"><path d="M 0 787.828125 C 214.425781 787.828125 393.671875 608.582031 393.671875 394.152344 C 393.671875 179.726562 214.425781 0.480469 0 0.480469 L 0 219.070312 C 95.363281 219.070312 175.082031 298.789062 175.082031 394.152344 C 175.082031 489.519531 95.363281 569.234375 0 569.234375 Z M 0 787.828125 " clip-rule="nonzero"/></clipPath><clipPath id="54d7eb535f"><rect x="0" width="394" y="0" height="788"/></clipPath><clipPath id="circleClip"><circle cx="750" cy="750" r="750" /></clipPath></defs><g clip-path="url(#circleClip)"><rect x="-150" width="1800" fill="#ffffff" y="-149.999993" height="1799.99992" fill-opacity="1"/><rect x="-150" width="1800" fill="#93c5fd" y="-149.999993" height="1799.99992" fill-opacity="1"/><g clip-path="url(#d7d63cecb6)"><g clip-path="url(#1f5aeb23b4)"><g transform="matrix(1, 0, 0, 1, 619, 266)"><g clip-path="url(#0c41d946a6)"><g clip-path="url(#6790b87ff4)"><g clip-path="url(#0648fe963b)"><path fill="#000000" d="M 203.320312 0.449219 L 203.320312 405.28125 L 0.902344 405.28125 L 0.902344 0.449219 Z M 203.320312 0.449219 " fill-opacity="1" fill-rule="nonzero"/></g></g></g></g></g></g><g clip-path="url(#9a3036987c)"><g clip-path="url(#6e87437ddf)"><g transform="matrix(1, 0, 0, 1, 257, 359)"><g clip-path="url(#c8907cbd75)"><g clip-path="url(#c8cbfa240d)"><g clip-path="url(#80ee92c8c3)"><path fill="#000000" d="M 0.320312 787.523438 L 0.320312 0.171875 L 393.996094 0.171875 L 393.996094 787.523438 Z M 0.320312 787.523438 " fill-opacity="1" fill-rule="nonzero"/></g></g></g></g></g></g><g clip-path="url(#9870aa9012)"><g clip-path="url(#4505fbf5fb)"><g transform="matrix(1, 0, 0, 1, 677, 828)"><g clip-path="url(#614bda4451)"><g clip-path="url(#149ec4ad3f)"><g clip-path="url(#27bd5587b2)"><path fill="#000000" d="M 0.671875 405.5625 L 0.671875 0.726562 L 203.085938 0.726562 L 203.085938 405.5625 Z M 0.671875 405.5625 " fill-opacity="1" fill-rule="nonzero"/></g></g></g></g></g></g><g clip-path="url(#cdde19f452)"><g clip-path="url(#4633dded7a)"><g transform="matrix(1, 0, 0, 1, 849, 353)"><g clip-path="url(#54d7eb535f)"><g clip-path="url(#a04e42e711)"><g clip-path="url(#24669dcdab)"><path fill="#000000" d="M 393.671875 0.480469 L 393.671875 787.828125 L 0 787.828125 L 0 0.480469 Z M 393.671875 0.480469 " fill-opacity="1" fill-rule="nonzero"/></g></g></g></g></g></g></g></svg>